<svg width="147" height="25" viewBox="0 0 147 25" fill="none" xmlns="http://www.w3.org/2000/svg">
<path d="M16.2704 21.3893C16.1034 21.7409 15.9418 22.0979 15.7749 22.4548C15.107 23.5203 14.7515 24.7563 12.9257 24.671C9.27937 24.4952 5.61687 24.5325 1.96517 24.671C0.0477505 24.735 0.00466251 23.6801 0.0800665 22.343C0.150084 21.091 -0.323881 19.6153 1.90054 19.6793C6.17702 19.7645 10.4589 19.7325 14.7354 19.6793C16.0819 19.626 16.4804 20.1853 16.2704 21.3893Z" fill="#FFFECC"/>
<path d="M16.2705 21.3897C16.4118 21.0463 16.5165 20.6892 16.5829 20.3242C16.5989 20.7036 16.4892 21.0777 16.2705 21.3897Z" fill="#FFFECC"/>
<path d="M19.6583 12.1628C18.9635 14.8266 17.6385 16.4248 14.5955 16.5686C11.9348 16.6912 9.30102 17.2772 6.6565 17.6341C5.5793 17.73 4.55056 17.7619 3.51106 17.9324C0.112499 18.4652 -0.156791 18.2148 0.0532624 14.8905C0.134052 13.6598 0.699594 13.2337 1.78218 13.0312C2.71934 12.8554 3.75346 13.0845 4.57751 12.4186L5.59544 12.3653C7.96549 12.3452 10.3215 12.0028 12.5972 11.3477C14.5416 11.1293 16.4913 10.9215 18.4357 10.6818C19.6906 10.554 19.9922 10.8843 19.6583 12.1628Z" fill="#FFFECC"/>
<path d="M23.7352 2.5619C23.0835 5.58787 21.1122 6.90904 18.0852 7.66021C13.8842 8.72569 9.53227 9.35964 5.56279 11.2455C5.11575 11.4586 4.48561 11.3255 3.97394 11.3521L1.36171 11.8209C0.602289 11.9541 0.0852455 11.6878 0.128334 10.8887C0.203737 9.4396 -0.410281 7.87868 0.753095 6.57346L22.2271 1.00094C22.8195 0.851772 23.4928 0.41495 23.9937 0.894418C24.4946 1.37388 23.8537 2.00252 23.7352 2.5619Z" fill="#FFFECC"/>
<path d="M44.66 19.8551C44.66 21.1123 44.66 22.0499 42.8772 21.986C39.3925 21.8635 35.8754 21.8795 32.4122 21.986C30.9203 22.034 30.6402 21.4533 30.6564 20.1374C30.721 15.4599 30.6564 10.7825 30.6887 6.10503C30.6887 5.2633 30.4194 4.31498 31.906 4.33629C35.9993 4.40022 40.0927 4.33629 44.2291 4.33629C43.292 8.54495 43.292 8.54496 39.4464 8.54496C38.4607 8.54496 37.4805 8.54496 36.4948 8.54496C35.5092 8.54496 35.2399 8.92321 35.2722 9.81822C35.3045 10.7132 35.5146 11.1874 36.4787 11.1661C37.3756 11.0938 38.2775 11.108 39.1717 11.2087C39.9472 11.3472 41.5523 10.4575 41.3261 12.0078C41.1645 13.1052 41.1322 15.0444 38.9993 14.9539C38.283 14.9539 37.5612 14.9965 36.8449 14.9539C35.73 14.8686 35.2722 15.2416 35.2668 16.4349C35.2668 17.7614 35.9831 17.804 36.9688 17.7933C38.9347 17.7933 40.9113 17.8946 42.8665 17.7561C44.6061 17.6282 44.6708 18.5605 44.66 19.8551Z" fill="#FFFECC"/>
<path d="M64.0928 4.61377C61.8953 10.1436 59.7355 15.6256 57.5434 21.0968C56.9456 22.5938 55.5668 21.9385 54.4949 22.0131C53.5632 22.0771 52.6475 22.2315 52.152 20.905C50.1161 15.4657 47.9348 10.0797 45.7373 4.48058C46.515 4.47578 47.2918 4.42774 48.0641 4.33673C50.3208 3.93718 51.3764 4.89615 51.9689 7.0431C52.6799 9.62157 53.7894 12.0881 54.9635 15.2473C55.9599 12.525 56.7678 10.4526 57.5003 8.32163C59.0084 3.93184 58.9869 3.92653 64.0928 4.61377Z" fill="#FFFECC"/>
<path d="M72.285 4.01019C67.2437 4.05813 63.3227 8.14957 63.3765 13.3118C63.4304 18.4741 67.2598 22.2992 72.2688 22.3258C73.4756 22.3371 74.6722 22.1074 75.7871 21.6506C76.9021 21.1938 77.9124 20.5192 78.7576 19.6672C79.6029 18.8152 80.2657 17.8034 80.7065 16.6921C81.1472 15.5809 81.3568 14.3932 81.3227 13.2C81.3065 8.01108 77.2993 3.96224 72.285 4.01019ZM77.0462 13.7008C76.9206 14.9351 76.3089 16.0708 75.3433 16.8624C74.3777 17.654 73.1359 18.0378 71.8864 17.9307C70.6541 17.7492 69.5329 17.1242 68.7378 16.1755C67.9427 15.2268 67.5295 14.0212 67.5776 12.7898C67.7206 11.5563 68.3296 10.422 69.2824 9.61386C70.2353 8.80573 71.4617 8.38357 72.7159 8.43197C73.3584 8.47489 73.9851 8.64818 74.557 8.9411C75.1288 9.23402 75.6336 9.6403 76.0398 10.1346C76.4461 10.6288 76.745 11.2005 76.9182 11.8141C77.0913 12.4276 77.1349 13.0699 77.0462 13.7008Z" fill="#FFFECC"/>
<path d="M97.8952 9.97786C97.6798 6.78141 95.4661 4.65049 91.9006 4.42674C89.59 4.28822 87.2632 4.4267 84.9473 4.32548C83.6492 4.27753 83.2453 4.76235 83.2884 6.00896C83.3691 8.38499 83.2884 10.761 83.2884 13.1424C83.2884 14.2878 83.2884 15.4278 83.2884 16.5732C83.353 17.7159 83.353 18.8614 83.2884 20.0041C83.0837 21.8207 84.0801 22.0445 85.5343 21.9273C86.7893 21.8261 88.5074 22.3588 88.1142 20.1266C87.6726 17.6121 88.6528 16.5626 91.195 16.8769C91.6422 16.889 92.0888 16.8351 92.52 16.7171C96.0478 16.0671 98.1322 13.4513 97.8952 9.97786ZM90.0424 13.0731C87.8288 13.3288 88.1627 11.9703 88.0927 10.6438C88.0173 9.16809 88.2327 8.1506 89.8647 8.55548C91.6043 8.55548 93.0963 8.7153 93.1286 10.6864C93.1771 12.7215 91.6798 12.8813 90.0424 13.0731Z" fill="#FFFECC"/>
<path d="M111.737 17.7179C110.66 21.9798 110.66 22.0171 106.669 21.9265C104.396 21.8733 101.375 22.9494 100.061 21.3938C98.9456 20.0833 99.6835 17.2064 99.6566 15.0009C99.6296 12.188 99.7751 9.36451 99.6135 6.56229C99.5004 4.66573 100.152 4.1916 102.005 4.23955C103.653 4.28217 104.606 4.34609 104.472 6.42911C104.262 9.57761 104.472 12.758 104.385 15.9172C104.342 17.3023 104.768 17.7818 106.184 17.6966C107.956 17.6327 109.739 17.7179 111.737 17.7179Z" fill="#FFFECC"/>
<path d="M125.385 5.22655C124.847 3.94265 123.931 4.07051 122.994 4.16107C121.944 4.26229 120.581 3.52713 119.956 5.04544C117.662 10.6073 115.373 16.169 112.955 22.0558C115.007 21.4538 117.301 23.0574 118.341 20.8572C119.111 19.2003 119.956 18.5078 121.712 18.7635C123.63 19.0406 126.204 17.7726 126.829 20.9638C127.012 21.8854 127.701 21.9333 128.445 21.928C129.603 21.928 130.755 21.928 132.355 21.928C129.904 16.0998 127.588 10.6765 125.385 5.22655ZM124.087 14.6188C123.716 15.5191 122.03 14.9544 120.619 14.8852C121.244 13.3882 121.804 12.0616 122.606 10.1384C123.436 12.0403 124.583 13.4095 124.087 14.6188Z" fill="#FFFECC"/>
<path d="M142.233 12.8059C140.493 15.2405 140.908 17.8137 140.902 20.3922C140.902 21.7293 140.364 22.2408 139.179 21.9158C138.102 21.6121 135.796 22.9813 136.125 20.7544C137.003 14.7451 132.92 10.7762 130.572 6.08273C130.346 5.6299 130.06 5.20904 129.796 4.76154C135.667 2.47075 136.362 7.37727 138.522 10.5897C140.676 7.46783 141.215 2.3695 146.999 4.72954C145.884 7.55307 144.069 10.2275 142.233 12.8059Z" fill="#FFFECC"/>
<path d="M72.285 4.01019C67.2437 4.05813 63.3227 8.14957 63.3765 13.3118C63.4304 18.4741 67.2598 22.2992 72.2688 22.3258C73.4756 22.3371 74.6722 22.1074 75.7871 21.6506C76.9021 21.1938 77.9124 20.5192 78.7576 19.6672C79.6029 18.8152 80.2657 17.8034 80.7065 16.6921C81.1472 15.5809 81.3568 14.3932 81.3227 13.2C81.3065 8.01108 77.2993 3.96224 72.285 4.01019ZM77.0462 13.7008C76.9206 14.9351 76.3089 16.0708 75.3433 16.8624C74.3777 17.654 73.1359 18.0378 71.8864 17.9307C70.6541 17.7492 69.5329 17.1242 68.7378 16.1755C67.9427 15.2268 67.5295 14.0212 67.5776 12.7898C67.7206 11.5563 68.3296 10.422 69.2824 9.61386C70.2353 8.80573 71.4617 8.38357 72.7159 8.43197C73.3584 8.47489 73.9851 8.64818 74.557 8.9411C75.1288 9.23402 75.6336 9.6403 76.0398 10.1346C76.4461 10.6288 76.745 11.2005 76.9182 11.8141C77.0913 12.4276 77.1349 13.0699 77.0462 13.7008Z" fill="#FFFECC"/>
<path d="M125.385 5.22655C124.847 3.94265 123.931 4.07051 122.994 4.16107C121.944 4.26229 120.581 3.52713 119.956 5.04544C117.662 10.6073 115.373 16.169 112.955 22.0558C115.007 21.4538 117.301 23.0574 118.341 20.8572C119.111 19.2003 119.956 18.5078 121.712 18.7635C123.63 19.0406 126.204 17.7726 126.829 20.9638C127.012 21.8854 127.701 21.9333 128.445 21.928C129.603 21.928 130.755 21.928 132.355 21.928C129.904 16.0998 127.588 10.6765 125.385 5.22655ZM124.087 14.6188C123.716 15.5191 122.03 14.9544 120.619 14.8852C121.244 13.3882 121.804 12.0616 122.606 10.1384C123.436 12.0403 124.583 13.4095 124.087 14.6188Z" fill="#FFFECC"/>
<path d="M44.66 19.8551C44.66 21.1123 44.66 22.0499 42.8772 21.986C39.3925 21.8635 35.8754 21.8795 32.4122 21.986C30.9203 22.034 30.6402 21.4533 30.6564 20.1374C30.721 15.4599 30.6564 10.7825 30.6887 6.10503C30.6887 5.2633 30.4194 4.31498 31.906 4.33629C35.9993 4.40022 40.0927 4.33629 44.2291 4.33629C43.292 8.54495 43.292 8.54496 39.4464 8.54496C38.4607 8.54496 37.4805 8.54496 36.4948 8.54496C35.5092 8.54496 35.2399 8.92321 35.2722 9.81822C35.3045 10.7132 35.5146 11.1874 36.4787 11.1661C37.3756 11.0938 38.2775 11.108 39.1717 11.2087C39.9472 11.3472 41.5523 10.4575 41.3261 12.0078C41.1645 13.1052 41.1322 15.0444 38.9993 14.9539C38.283 14.9539 37.5612 14.9965 36.8449 14.9539C35.73 14.8686 35.2722 15.2416 35.2668 16.4349C35.2668 17.7614 35.9831 17.804 36.9688 17.7933C38.9347 17.7933 40.9113 17.8946 42.8665 17.7561C44.6061 17.6282 44.6708 18.5605 44.66 19.8551Z" fill="#FFFECC"/>
<path d="M97.8952 9.97786C97.6798 6.78141 95.4661 4.65049 91.9006 4.42674C89.59 4.28822 87.2632 4.4267 84.9473 4.32548C83.6492 4.27753 83.2453 4.76235 83.2884 6.00896C83.3691 8.38499 83.2884 10.761 83.2884 13.1424C83.2884 14.2878 83.2884 15.4278 83.2884 16.5732C83.353 17.7159 83.353 18.8614 83.2884 20.0041C83.0837 21.8207 84.0801 22.0445 85.5343 21.9273C86.7893 21.8261 88.5074 22.3588 88.1142 20.1266C87.6726 17.6121 88.6528 16.5626 91.195 16.8769C91.6422 16.889 92.0888 16.8351 92.52 16.7171C96.0478 16.0671 98.1322 13.4513 97.8952 9.97786ZM90.0424 13.0731C87.8288 13.3288 88.1627 11.9703 88.0927 10.6438C88.0173 9.16809 88.2327 8.1506 89.8647 8.55548C91.6043 8.55548 93.0963 8.7153 93.1286 10.6864C93.1771 12.7215 91.6798 12.8813 90.0424 13.0731Z" fill="#FFFECC"/>
<path d="M64.0928 4.61377C61.8953 10.1436 59.7355 15.6256 57.5434 21.0968C56.9456 22.5938 55.5668 21.9385 54.4949 22.0131C53.5632 22.0771 52.6475 22.2315 52.152 20.905C50.1161 15.4657 47.9348 10.0797 45.7373 4.48058C46.515 4.47578 47.2918 4.42774 48.0641 4.33673C50.3208 3.93718 51.3764 4.89615 51.9689 7.0431C52.6799 9.62157 53.7894 12.0881 54.9635 15.2473C55.9599 12.525 56.7678 10.4526 57.5003 8.32163C59.0084 3.93184 58.9869 3.92653 64.0928 4.61377Z" fill="#FFFECC"/>
<path d="M142.233 12.8059C140.493 15.2405 140.908 17.8137 140.902 20.3922C140.902 21.7293 140.364 22.2408 139.179 21.9158C138.102 21.6121 135.796 22.9813 136.125 20.7544C137.003 14.7451 132.92 10.7762 130.572 6.08273C130.346 5.6299 130.06 5.20904 129.796 4.76154C135.667 2.47075 136.362 7.37727 138.522 10.5897C140.676 7.46783 141.215 2.3695 146.999 4.72954C145.884 7.55307 144.069 10.2275 142.233 12.8059Z" fill="#FFFECC"/>
<path d="M23.7352 2.5619C23.0835 5.58787 21.1122 6.90904 18.0852 7.66021C13.8842 8.72569 9.53227 9.35964 5.56279 11.2455C5.11575 11.4586 4.48561 11.3255 3.97394 11.3521L1.36171 11.8209C0.602289 11.9541 0.0852455 11.6878 0.128334 10.8887C0.203737 9.4396 -0.410281 7.87868 0.753095 6.57346L22.2271 1.00094C22.8195 0.851772 23.4928 0.41495 23.9937 0.894418C24.4946 1.37388 23.8537 2.00252 23.7352 2.5619Z" fill="#FFFECC"/>
<path d="M111.737 17.7179C110.66 21.9798 110.66 22.0171 106.669 21.9265C104.396 21.8733 101.375 22.9494 100.061 21.3938C98.9456 20.0833 99.6835 17.2064 99.6566 15.0009C99.6296 12.188 99.7751 9.36451 99.6135 6.56229C99.5004 4.66573 100.152 4.1916 102.005 4.23955C103.653 4.28217 104.606 4.34609 104.472 6.42911C104.262 9.57761 104.472 12.758 104.385 15.9172C104.342 17.3023 104.768 17.7818 106.184 17.6966C107.956 17.6327 109.739 17.7179 111.737 17.7179Z" fill="#FFFECC"/>
<path d="M19.6583 12.1628C18.9635 14.8266 17.6385 16.4248 14.5955 16.5686C11.9348 16.6912 9.30102 17.2772 6.6565 17.6341C5.5793 17.73 4.55056 17.7619 3.51106 17.9324C0.112499 18.4652 -0.156791 18.2148 0.0532624 14.8905C0.134052 13.6598 0.699594 13.2337 1.78218 13.0312C2.71934 12.8554 3.75346 13.0845 4.57751 12.4186L5.59544 12.3653C7.96549 12.3452 10.3215 12.0028 12.5972 11.3477C14.5416 11.1293 16.4913 10.9215 18.4357 10.6818C19.6906 10.554 19.9922 10.8843 19.6583 12.1628Z" fill="#FFFECC"/>
<path d="M16.2704 21.3893C16.1034 21.7409 15.9418 22.0979 15.7749 22.4548C15.107 23.5203 14.7515 24.7563 12.9257 24.671C9.27937 24.4952 5.61687 24.5325 1.96517 24.671C0.0477505 24.735 0.00466251 23.6801 0.0800665 22.343C0.150084 21.091 -0.323881 19.6153 1.90054 19.6793C6.17702 19.7645 10.4589 19.7325 14.7354 19.6793C16.0819 19.626 16.4804 20.1853 16.2704 21.3893Z" fill="#FFFECC"/>
<path d="M16.2705 21.3897C16.4118 21.0463 16.5165 20.6892 16.5829 20.3242C16.5989 20.7036 16.4892 21.0777 16.2705 21.3897Z" fill="#FFFECC"/>
</svg>
