<svg width="119" height="146" viewBox="0 0 119 146" fill="none" xmlns="http://www.w3.org/2000/svg">
<path d="M5.75622 0.821212C7.60965 0.250926 9.56573 0.108354 11.4933 0.00570286C42.8419 -0.00570286 74.1905 0.0285143 105.533 0C107.107 0.0285143 108.664 0.296549 110.233 0.364983C111.955 0.347874 113.329 1.54547 114.538 2.62902C115.462 3.54147 116.597 4.36269 117.036 5.64013C117.578 7.03733 118.211 8.43453 118.279 9.95149C118.479 13.1337 118.348 16.3216 118.388 19.5095C118.388 41.186 118.376 62.8683 118.376 84.5449C118.342 92.8767 118.467 101.209 118.296 109.54C118.382 111.599 117.144 113.379 115.787 114.793C112.354 117.068 108.402 118.465 105.089 120.918C101.952 122.566 98.8668 124.305 95.8842 126.227C92.3997 128.4 88.71 130.213 85.2598 132.443C83.3607 133.39 81.7354 134.804 79.728 135.528C78.0342 136.561 76.2778 137.513 74.641 138.636C73.6031 139.167 72.4854 139.549 71.5558 140.279C69.3944 141.448 67.1304 142.48 65.2256 144.054C63.4349 144.818 61.7526 146.198 59.6939 145.976C56.8766 145.782 54.4244 144.134 52.1148 142.64C50.5465 141.477 48.5163 141.191 47.0107 139.931C45.7276 138.91 44.1365 138.414 42.8077 137.473C41.4675 136.521 40.0076 135.762 38.5134 135.078C37.0763 134.473 35.8331 133.492 34.3903 132.894C32.9931 132.329 31.978 131.171 30.6891 130.436C28.2027 129.301 25.7333 128.103 23.3952 126.678C21.8497 125.908 20.5722 124.67 18.8842 124.191C17.4015 122.634 15.2743 121.939 13.4095 120.958C11.5617 120.296 10.1018 118.91 8.27118 118.22C6.03566 117.228 4.06247 115.768 2.18053 114.234C1.02285 113.156 0.515294 111.588 0.623649 110.031C0.629351 76.4639 0.600838 42.8912 0.640758 9.31277C0.663569 7.5848 0.669272 5.68005 1.67297 4.1973C2.99033 3.02251 4.27348 1.76789 5.75622 0.821212ZM8.28829 0.95808C4.83806 1.27174 2.14631 4.49385 1.45627 7.72167C1.33651 41.5567 1.45056 75.3975 1.39924 109.233C1.3194 110.915 2.07217 112.717 3.57203 113.584C6.21245 115.175 8.98404 116.578 11.6416 118.163C14.7382 119.68 17.5212 121.762 20.6464 123.216C22.4086 124.003 23.9084 125.269 25.6763 126.05C27.0735 126.655 28.3681 127.459 29.6227 128.32C31.0427 129.307 32.7821 129.74 34.1336 130.846C35.7704 132.232 37.9831 132.62 39.6711 133.954C44.9177 136.96 50.153 140.005 55.5023 142.828C56.8082 143.638 58.0115 144.932 59.6939 144.687C61.6956 144.932 62.9844 143.216 64.6268 142.44C66.868 141.323 68.9382 139.891 71.2022 138.808C72.5367 138.066 74.1506 137.547 74.9376 136.139C75.1144 136.15 75.4679 136.173 75.6504 136.184C77.4583 135.534 78.9866 134.279 80.6747 133.373C84.7351 131.228 88.5275 128.599 92.6507 126.558C94.5554 125.491 96.4146 124.334 98.3079 123.25C101.022 122.554 103.212 120.764 105.625 119.441C108.818 117.918 111.693 115.836 114.812 114.171C116.768 113.213 117.241 110.807 117.15 108.828C117.184 76.4354 117.179 44.0489 117.156 11.668C117.173 9.86024 117.122 7.984 116.3 6.33017C115.399 4.24863 113.603 2.70886 111.635 1.65953C109.868 0.764183 107.849 0.781292 105.916 0.7984C75.4908 0.764183 45.0603 0.872537 14.6356 0.844023C12.5198 0.895349 10.3926 0.71856 8.28829 0.95808Z" fill="#C4BBB3"/>
<path d="M41.6741 50.0669C48.6316 44.0618 58.0242 41.2845 67.1316 41.5753C69.2531 41.5925 71.4031 41.5183 73.4732 42.0373C66.7724 43.1094 60.2654 46.0863 55.3381 50.8026C52.002 54.0475 49.5497 58.3246 49.0022 62.9896C48.4947 67.7458 50.0573 72.5989 53.0228 76.3229C54.2603 78.0052 55.8457 79.3739 57.3683 80.7882C57.4995 80.7084 57.7675 80.543 57.8987 80.4631C58.4063 81.7349 59.6837 82.3622 60.7216 83.1207C64.5596 85.6014 69.0307 86.7192 73.3934 87.9054C69.4071 88.4985 65.3637 88.3901 61.3546 88.1734C58.5089 87.318 55.5149 87.0271 52.7148 86.0006C48.3521 84.3411 44.0122 82.2082 40.7217 78.8207C37.4254 75.7868 35.1443 71.6465 34.4372 67.2154C33.5817 60.7312 36.7183 54.1673 41.6741 50.0669Z" fill="white"/>
<path d="M72.833 47.3359C73.2379 48.1857 73.6257 49.0468 73.9337 49.9364C74.829 49.965 75.7301 49.9992 76.6254 50.1075C75.9696 50.6379 75.2282 51.0884 74.6808 51.7328C74.7378 52.5483 75.0514 53.3182 75.2739 54.1052C74.504 53.7003 73.7797 53.1985 72.9528 52.9247C72.0574 53.1072 71.413 53.9056 70.6431 54.3562C70.8085 53.5692 71.0366 52.7936 71.1792 52.0009C70.7971 51.1911 69.9816 50.7234 69.3828 50.0904C70.2439 49.9935 71.1336 50.0334 71.9719 49.7882C72.3312 49.0012 72.565 48.1629 72.833 47.3359Z" fill="white"/>
<path d="M72.875 56.7422C73.1772 57.6375 73.451 58.5614 73.93 59.3883C74.6828 59.8959 75.7207 59.5594 76.5875 59.6735C76.0515 60.3065 75.3557 60.7741 74.6315 61.179C74.7683 62.1656 75.0535 63.1237 75.35 64.0818C74.5915 63.5115 73.8273 62.9355 72.989 62.485C72.145 62.8271 71.4207 63.3803 70.6395 63.8308C70.7934 62.9982 71.0215 62.1827 71.2839 61.3729C70.5254 60.814 69.7498 60.2723 69.0312 59.6621C69.9779 59.6164 70.9303 59.6164 71.877 59.6278C72.2248 58.6755 72.5784 57.7174 72.875 56.7422Z" fill="white"/>
<path d="M72.8327 66.1406C73.2376 66.9904 73.6197 67.8515 73.9334 68.7468C74.8287 68.7753 75.7298 68.8324 76.6194 68.9407C75.9579 69.454 75.2108 69.8817 74.6747 70.5375C74.6462 71.6097 75.2678 72.5677 75.6385 73.5429C74.8401 72.9441 74.093 72.2712 73.2376 71.7522C72.097 71.5983 71.4412 72.9042 70.4261 73.2521C70.7227 72.3168 71.0591 71.393 71.2815 70.4292C70.5288 69.9615 69.7988 69.4597 69.0859 68.935C70.0326 68.8039 71.0819 68.9864 71.9488 68.5643C72.3423 67.7945 72.5647 66.9561 72.8327 66.1406Z" fill="white"/>
<path d="M72.8715 75.5391C73.265 76.5028 73.476 77.5978 74.2059 78.3734C74.9872 78.5102 75.7913 78.4589 76.5897 78.4874C76.0537 79.1262 75.3579 79.5938 74.6451 80.0101C74.7762 80.9796 75.05 81.932 75.3522 82.8729C74.5937 82.354 73.8695 81.7038 72.9684 81.4529C71.9476 81.6012 71.2291 82.4965 70.3565 82.9813C70.6303 82.046 70.9268 81.1165 71.383 80.2553C70.6759 79.7592 70.0258 79.2117 69.3984 78.63C70.1911 78.5559 70.9952 78.5217 71.7936 78.5217C72.2328 77.5579 72.5806 76.5542 72.8715 75.5391Z" fill="white"/>
<path d="M8.28451 0.965497C10.3889 0.725977 12.5103 0.902766 14.6261 0.845737C45.0508 0.874252 75.4813 0.765897 105.917 0.805817C107.851 0.788709 109.87 0.7716 111.637 1.66695C113.599 2.71627 115.401 4.25605 116.302 6.33759C117.124 7.99142 117.175 9.87336 117.158 11.6755C117.181 44.062 117.186 76.4485 117.152 108.835C117.243 110.814 116.77 113.221 114.814 114.179C111.694 115.844 108.82 117.925 105.627 119.448C103.214 120.771 101.024 122.556 98.3098 123.258C96.4165 124.341 94.5573 125.499 92.6526 126.565C88.5294 128.607 84.7427 131.23 80.6766 133.38C78.9885 134.287 77.4659 135.542 75.6524 136.192C75.4699 136.18 75.1163 136.157 74.9395 136.146C76.5876 134.926 78.2358 133.671 80.0721 132.747C83.9785 130.905 87.463 128.31 91.3295 126.383C94.3863 124.991 97.0039 122.858 99.9351 121.244C103.75 119.248 107.452 117.041 111.17 114.869C112.829 113.882 114.979 113.118 115.675 111.133C116.194 109.377 116.16 107.523 116.2 105.704C116.183 75.2737 116.194 44.8376 116.194 14.4071C116.143 12.2857 116.211 10.0901 115.436 8.07696C115.527 9.53689 115.806 10.9797 115.852 12.4396C115.835 42.4766 115.846 72.5192 115.846 102.562C115.966 105.311 115.715 108.048 115.35 110.768C115.293 111.521 114.477 111.812 113.941 112.177C110.645 113.922 107.423 115.804 104.224 117.714C90.9189 125.293 77.7225 133.049 64.4234 140.628C62.6841 141.661 60.8877 142.613 59.2681 143.828C61.5207 143.782 63.243 142.197 65.2332 141.387C67.195 140.56 68.7006 138.963 70.708 138.216C72.1907 137.657 73.2172 135.998 74.9452 136.146C74.1525 137.555 72.5386 138.074 71.2098 138.815C68.9515 139.898 66.8757 141.324 64.6344 142.448C62.992 143.229 61.7032 144.94 59.7015 144.695C58.0191 144.94 56.8158 143.645 55.5099 142.835C50.1606 140.013 44.9254 136.967 39.6787 133.962C37.9907 132.627 35.778 132.24 34.1413 130.854C32.7897 129.747 31.0503 129.314 29.6303 128.327C28.3757 127.461 27.0811 126.662 25.6839 126.058C23.9103 125.276 22.4162 124.01 20.654 123.223C17.5288 121.763 14.7458 119.688 11.6492 118.171C8.99166 116.585 6.22007 115.182 3.57965 113.591C3.29451 112.924 3.03788 112.24 2.78125 111.561C5.6669 112.918 8.37005 114.635 11.1359 116.237C15.664 118.747 20.0438 121.501 24.6004 123.953C35.9206 130.552 47.3776 136.927 58.5951 143.708C58.5438 139.14 58.5495 134.566 58.578 129.993C58.5267 128.624 58.5609 127.17 57.9393 125.909C56.4566 125.339 54.854 124.986 53.5766 123.982C51.8087 122.625 49.5504 122.123 47.8224 120.703C46.5621 119.653 44.9254 119.231 43.608 118.273C41.8116 117.013 39.6901 116.283 37.9622 114.909C36.1544 113.437 33.8105 112.895 31.9799 111.47C30.6568 110.466 28.8832 110.301 27.6685 109.132C26.1915 107.723 24.3095 106.925 22.4789 106.069C19.7644 104.826 17.4091 102.921 14.6489 101.763C12.2024 100.754 10.0581 99.0946 8.34724 97.0929C7.6686 96.3458 7.69141 95.2907 7.6629 94.3498C7.73133 77.2298 7.64579 60.1041 7.70852 42.9899C7.85109 41.4159 7.53743 39.226 9.28821 38.4447L9.35664 38.8382C9.24829 40.224 9.11142 41.6098 9.13994 43.0013C9.19696 60.7542 9.07721 78.5015 9.19697 96.2488C12.8354 98.741 16.8844 100.566 20.6711 102.83C24.0016 104.911 27.5887 106.542 30.8792 108.687C32.2479 109.588 33.782 110.198 35.1963 111.019C42.4617 115.696 50.1891 119.596 57.7055 123.845L58.0591 123.936C59.6045 124.455 61.1101 123.526 62.4959 122.938C64.8283 121.644 67.2235 120.44 69.4134 118.912C70.9703 117.897 72.858 117.526 74.3464 116.391C77.1921 114.122 80.5853 112.719 83.6763 110.825C86.0145 109.331 88.5808 108.236 90.879 106.674C95.6808 104.056 100.426 101.313 105.182 98.6212C106.887 97.7088 107.68 95.8097 107.605 93.9392C107.605 77.0815 107.583 60.2239 107.617 43.3719C107.623 41.9919 107.343 40.6232 106.893 39.3229C106.767 38.9294 106.625 38.553 106.465 38.1766C106.328 38.1082 106.06 37.9827 105.923 37.92C103.345 36.8137 101.053 35.1655 98.5379 33.9337C96.6674 33.0213 95.0535 31.6811 93.2286 30.6831C90.5939 29.2517 87.9819 27.7746 85.3757 26.2976C80.2603 22.9728 74.7513 20.3096 69.6073 17.0304C65.6838 14.7436 61.7374 12.5024 57.734 10.3752C58.213 9.73079 58.5153 8.9609 58.5039 8.1511C58.5723 5.80722 58.5324 3.46335 58.4811 1.11947C43.4654 1.18791 28.4612 1.14799 13.457 1.1651C11.729 1.1765 10.0068 1.05104 8.28451 0.965497Z" fill="#49743A"/>
<path d="M1.4534 7.73234C2.14345 4.50452 4.8409 1.28241 8.28543 0.96875C10.0077 1.05429 11.7243 1.17976 13.4522 1.16265C28.4621 1.15124 43.4664 1.19116 58.4706 1.13413C58.5276 3.47801 58.5618 5.82188 58.4934 8.16576C58.4991 8.97556 58.1968 9.74545 57.7235 10.3899C53.76 13.093 49.3574 15.0662 45.3198 17.6553C41.4475 20.1646 37.3016 22.1948 33.3381 24.5501C28.6275 27.7836 23.2725 29.9393 18.6133 33.2583C15.4824 34.9635 12.4086 36.7599 9.27773 38.4593C7.53265 39.2406 7.84061 41.4305 7.69803 43.0045C7.6296 60.1245 7.72085 77.2445 7.65241 94.3644C7.68093 95.3054 7.65811 96.3604 8.33675 97.1075C10.0476 99.1092 12.1976 100.769 14.6384 101.778C17.3986 102.936 19.7539 104.841 22.4684 106.084C24.2934 106.934 26.181 107.732 27.658 109.146C28.8727 110.315 30.652 110.481 31.9694 111.484C33.8057 112.904 36.1439 113.446 37.9517 114.923C39.6797 116.298 41.8011 117.028 43.5975 118.288C44.9206 119.246 46.5516 119.668 47.8119 120.717C49.5399 122.137 51.7982 122.639 53.5661 123.996C54.8436 125 56.4404 125.354 57.9288 125.924C58.5504 127.184 58.5162 128.633 58.5675 130.007C58.539 134.581 58.539 139.155 58.5846 143.723C47.3728 136.942 35.9158 130.566 24.5899 123.968C20.0276 121.516 15.6478 118.756 11.1255 116.252C8.36527 114.655 5.66211 112.939 2.77077 111.576C3.02739 112.254 3.28402 112.933 3.56916 113.606C2.06931 112.739 1.31654 110.937 1.39638 109.255C1.4534 75.4081 1.33935 41.5674 1.4534 7.73234Z" fill="#5C9149"/>
<path d="M105.914 37.9531C106.051 38.0159 106.319 38.147 106.456 38.2098C106.61 38.5861 106.758 38.9682 106.884 39.356C106.701 58.0785 106.895 76.8181 106.787 95.5406C106.929 96.6127 105.914 97.0747 105.139 97.5138C101.671 99.3558 98.1983 101.198 94.8565 103.279C89.9691 105.754 85.3498 108.691 80.5252 111.286C75.7633 114.514 70.4824 116.864 65.6179 119.92C63.0972 121.266 60.6564 122.783 58.0502 123.969L57.6966 123.878C57.8278 118.09 57.708 112.29 57.7765 106.496C57.805 105.099 57.748 103.707 57.5312 102.327C60.0918 101.472 62.3159 99.9318 64.637 98.5973C68.7944 96.4987 72.7066 93.9438 76.9438 92.0162C79.4074 90.5107 82.0535 89.3302 84.5001 87.7904C86.3706 86.627 88.5206 85.9484 90.2885 84.631C90.7732 83.0969 90.4824 81.4317 90.5451 79.852C90.5622 68.6516 90.471 57.4512 90.5793 46.2565C95.7974 43.5933 101.17 41.2437 106.496 38.8086C106.348 38.5918 106.057 38.1641 105.914 37.9531Z" fill="#5C9149"/>
<path d="M115.439 8.07812C116.22 10.0855 116.146 12.2868 116.197 14.4083C116.197 44.8387 116.186 75.2749 116.203 105.705C116.163 107.519 116.197 109.378 115.678 111.134C114.983 113.119 112.833 113.883 111.173 114.87C107.455 117.043 103.754 119.25 99.9384 121.246C97.0071 122.854 94.3895 124.992 91.3328 126.384C87.472 128.311 83.9818 130.912 80.0754 132.748C78.239 133.678 76.5909 134.927 74.9428 136.147C73.2205 135.999 72.194 137.658 70.7056 138.217C68.6982 138.964 67.1869 140.561 65.2308 141.388C63.2348 142.198 61.5183 143.783 59.2656 143.829C60.8852 142.614 62.6816 141.662 64.421 140.63C77.7201 133.051 90.9165 125.295 104.221 117.716C107.421 115.805 110.637 113.917 113.939 112.178C114.481 111.813 115.291 111.522 115.348 110.769C115.718 108.049 115.963 105.312 115.844 102.563C115.844 72.5261 115.827 42.4835 115.849 12.4408C115.809 10.9809 115.536 9.53806 115.439 8.07812Z" fill="black"/>
<path d="M9.12882 43.0068C9.10031 41.6153 9.23718 40.2295 9.34553 38.8438C14.7176 41.2447 20.0897 43.6456 25.3477 46.2917C25.4048 57.2127 25.3592 68.1336 25.3649 79.0546C25.3934 80.8111 25.2223 82.579 25.4561 84.3183C25.9751 84.8829 26.7507 85.1053 27.4008 85.4817C34.4894 89.3597 41.4583 93.4543 48.5983 97.2467C51.5695 98.9405 54.4779 100.754 57.529 102.311C57.7457 103.691 57.797 105.082 57.7742 106.48C57.7058 112.274 57.8198 118.068 57.6944 123.862C50.178 119.613 42.4506 115.707 35.1852 111.036C33.7709 110.209 32.2368 109.605 30.8681 108.704C27.5776 106.559 23.9905 104.928 20.66 102.847C16.8733 100.583 12.83 98.758 9.18585 96.2658C9.06609 78.5128 9.18585 60.7598 9.12882 43.0068Z" fill="black"/>
<path d="M106.88 39.3438C107.331 40.644 107.61 42.0127 107.605 43.3928C107.57 60.2504 107.593 77.1081 107.593 93.96C107.667 95.8306 106.875 97.7296 105.17 98.6421C100.408 101.334 95.6686 104.077 90.8668 106.695C88.5686 108.251 86.0023 109.352 83.6641 110.846C80.5732 112.745 77.18 114.142 74.3342 116.412C72.8458 117.547 70.9581 117.918 69.4013 118.933C67.2114 120.461 64.8162 121.659 62.4837 122.959C61.0979 123.546 59.5981 124.476 58.0469 123.957C60.6531 122.777 63.0882 121.254 65.6146 119.908C70.4791 116.851 75.76 114.502 80.5218 111.274C85.3465 108.679 89.9658 105.742 94.8531 103.267C98.1893 101.191 101.668 99.3435 105.135 97.5015C105.911 97.0624 106.932 96.6061 106.784 95.5283C106.892 76.8058 106.692 58.0719 106.88 39.3438Z" fill="black"/>
<path d="M45.3233 17.6483C49.3609 15.0649 53.7692 13.086 57.727 10.3828C61.7304 12.5157 65.6768 14.7569 69.6004 17.038C74.7387 20.3229 80.2533 22.9804 85.3688 26.3052C87.9807 27.7879 90.5869 29.2593 93.2216 30.6907C95.0408 31.6887 96.6604 33.0289 98.531 33.9413C101.046 35.1731 103.338 36.8156 105.916 37.9276C106.059 38.1386 106.35 38.572 106.498 38.783C101.171 41.2182 95.7993 43.5677 90.5812 46.231C88.0947 45.1588 85.8421 43.6362 83.4526 42.3758C75.4059 37.7223 67.2964 33.1828 59.2725 28.4894C58.6851 28.2214 57.9837 27.691 57.3506 28.1301C50.5528 32.0195 43.7493 35.9145 36.9515 39.8153C33.0451 41.8968 29.3439 44.3661 25.3519 46.2823C20.0939 43.6362 14.7161 41.2353 9.34968 38.8344L9.28125 38.4409C12.4121 36.7414 15.486 34.945 18.6168 33.2399C23.2818 29.9208 28.631 27.7651 33.3473 24.5316C37.3051 22.1934 41.4511 20.1632 45.3233 17.6483Z" fill="#FAE36B"/>
<path d="M57.3419 28.1314C57.9749 27.6865 58.6764 28.2226 59.2638 28.4906C67.2877 33.1841 75.3971 37.7236 83.4439 42.3771C85.8277 43.6374 88.0803 45.1601 90.5724 46.2322C90.4641 57.4326 90.5553 68.6273 90.5382 79.8278C90.4812 81.4131 90.772 83.0727 90.2816 84.6067C88.5137 85.9241 86.3637 86.6027 84.4932 87.7661C82.0467 89.3059 79.4062 90.4864 76.9369 91.992C72.6997 93.9138 68.7875 96.4744 64.6301 98.573C62.3091 99.9075 60.085 101.447 57.5244 102.303C54.4734 100.746 51.5649 98.9323 48.5937 97.2386C41.4537 93.4462 34.4848 89.3515 27.3962 85.4736C26.7404 85.0972 25.9648 84.8748 25.4515 84.3102C25.2177 82.5651 25.3945 80.7972 25.3603 79.0465C25.3546 68.1255 25.4002 57.2045 25.3432 46.2835C29.3294 44.3617 33.0363 41.898 36.9428 39.8165C43.7406 35.9158 50.5441 32.0207 57.3419 28.1314ZM41.6761 50.0588C36.7204 54.1592 33.5838 60.7232 34.4392 67.213C35.1464 71.6441 37.4275 75.7844 40.7238 78.8183C44.0143 82.2058 48.3542 84.3387 52.7169 85.9982C55.517 87.0191 58.5053 87.3099 61.3567 88.171C65.3658 88.3877 69.4091 88.4904 73.3954 87.903C69.0327 86.7225 64.5617 85.599 60.7237 83.1183C59.6801 82.3541 58.4026 81.7268 57.9008 80.4608C57.7696 80.5406 57.5073 80.706 57.3704 80.7858C55.8477 79.3715 54.2623 78.0028 53.0248 76.3205C50.0593 72.5965 48.4968 67.7434 49.0043 62.9872C49.5518 58.3223 52.004 54.0451 55.3402 50.8002C60.2675 46.0839 66.7744 43.1071 73.4753 42.0349C71.4051 41.516 69.2495 41.5901 67.1337 41.573C58.0262 41.2707 48.6336 44.0537 41.6761 50.0588ZM72.8308 47.3272C72.5628 48.1541 72.3347 48.9924 71.964 49.7851C71.1257 50.0303 70.236 49.9904 69.3749 50.0873C69.9737 50.7204 70.7892 51.188 71.1713 51.9978C71.0288 52.7905 70.8006 53.5661 70.6353 54.3531C71.4051 53.8969 72.0496 53.0985 72.9449 52.9217C73.7718 53.1954 74.4961 53.6973 75.266 54.1022C75.0493 53.3152 74.7356 52.5453 74.6729 51.7298C75.2261 51.0854 75.9617 50.6348 76.6175 50.1045C75.7222 49.9961 74.8211 49.9619 73.9258 49.9334C73.6235 49.0323 73.23 48.1769 72.8308 47.3272ZM72.8765 56.7312C72.5799 57.7064 72.2263 58.6644 71.8785 59.6225C70.9318 59.6111 69.9794 59.6111 69.0328 59.6567C69.7513 60.2612 70.5269 60.8087 71.2854 61.3676C71.0288 62.1774 70.7949 62.9872 70.641 63.8255C71.4222 63.375 72.1465 62.8161 72.9905 62.4797C73.8288 62.9245 74.5873 63.5062 75.3515 64.0765C75.055 63.1184 74.7698 62.1603 74.633 61.1737C75.3572 60.7688 76.053 60.3012 76.589 59.6682C75.7222 59.5541 74.6843 59.8849 73.9315 59.383C73.4525 58.5504 73.1787 57.6322 72.8765 56.7312ZM72.8308 66.1295C72.5628 66.945 72.3404 67.7833 71.9526 68.5532C71.0801 68.9752 70.0307 68.7984 69.0898 68.9239C69.8026 69.4486 70.5326 69.9504 71.2854 70.418C71.0687 71.3761 70.7265 72.3 70.43 73.241C71.4451 72.8931 72.1009 71.5871 73.2415 71.7411C74.0969 72.2601 74.844 72.933 75.6424 73.5318C75.2717 72.5566 74.6444 71.5985 74.6786 70.5264C75.2089 69.8706 75.9617 69.4428 76.6233 68.9296C75.7279 68.8212 74.8326 68.7642 73.9372 68.7357C73.6178 67.8403 73.23 66.9792 72.8308 66.1295ZM72.8708 75.5335C72.5799 76.5543 72.2378 77.5523 71.7872 78.5161C70.9888 78.5161 70.1904 78.5503 69.392 78.6245C70.0193 79.2061 70.6752 79.7593 71.3766 80.2498C70.9204 81.1109 70.6238 82.0462 70.3501 82.9757C71.2226 82.491 71.9469 81.5956 72.962 81.4474C73.8631 81.6983 74.5873 82.3427 75.3458 82.8674C75.0493 81.9264 74.7755 80.9797 74.6387 80.0045C75.3515 79.5882 76.0473 79.1206 76.5833 78.4819C75.7849 78.4534 74.9808 78.5047 74.1995 78.3678C73.4753 77.5922 73.2586 76.4973 72.8708 75.5335Z" fill="#D34843"/>
</svg>
