<svg width="147" height="147" viewBox="0 0 147 147" fill="none" xmlns="http://www.w3.org/2000/svg">
<path fill-rule="evenodd" clip-rule="evenodd" d="M73.4083 2.343C34.1894 2.343 2.39622 34.1362 2.39622 73.3551C2.39622 112.574 34.1894 144.367 73.4083 144.367C112.627 144.367 144.42 112.574 144.42 73.3551C144.42 34.1362 112.627 2.343 73.4083 2.343ZM0.0532227 73.3551C0.0532227 32.8422 32.8954 0 73.4083 0C113.921 0 146.763 32.8422 146.763 73.3551C146.763 113.868 113.921 146.71 73.4083 146.71C32.8954 146.71 0.0532227 113.868 0.0532227 73.3551Z" fill="#FFFECC"/>
<path fill-rule="evenodd" clip-rule="evenodd" d="M36.9768 38.7746C17.8785 38.7746 2.39622 54.2569 2.39622 73.3552C2.39622 92.4535 17.8785 107.936 36.9768 107.936C56.0751 107.936 71.5573 92.4535 71.5573 73.3552C71.5573 54.2569 56.0751 38.7746 36.9768 38.7746ZM0.0532227 73.3552C0.0532227 52.9629 16.5845 36.4316 36.9768 36.4316C57.3691 36.4316 73.9003 52.9629 73.9003 73.3552C73.9003 93.7475 57.3691 110.279 36.9768 110.279C16.5845 110.279 0.0532227 93.7475 0.0532227 73.3552Z" fill="#FFFECC"/>
<path d="M5.77489 84.4694C-0.363767 78.3307 -0.363767 68.3772 5.77489 62.2407C11.9136 56.1021 21.8649 56.1021 28.0036 62.2407C34.1422 68.3794 34.1422 78.3307 28.0036 84.4715C21.867 90.6081 11.9136 90.6102 5.77489 84.4694Z" fill="#FFFECC"/>
<path fill-rule="evenodd" clip-rule="evenodd" d="M46.4574 29.2942C22.1231 29.2942 2.39622 49.021 2.39622 73.3554C2.39622 97.6897 22.1231 117.417 46.4574 117.417C70.7917 117.417 90.5186 97.6897 90.5186 73.3554C90.5186 49.021 70.7917 29.2942 46.4574 29.2942ZM0.0532227 73.3554C0.0532227 47.727 20.8291 26.9512 46.4574 26.9512C72.0857 26.9512 92.8616 47.727 92.8616 73.3554C92.8616 98.9837 72.0857 119.76 46.4574 119.76C20.8291 119.76 0.0532227 98.9837 0.0532227 73.3554Z" fill="#FFFECC"/>
<path fill-rule="evenodd" clip-rule="evenodd" d="M54.5876 21.1638C25.7631 21.1638 2.39622 44.5307 2.39622 73.3552C2.39622 102.18 25.7631 125.547 54.5876 125.547C83.4121 125.547 106.779 102.18 106.779 73.3552C106.779 44.5307 83.4121 21.1638 54.5876 21.1638ZM0.0532227 73.3552C0.0532227 43.2367 24.4691 18.8208 54.5876 18.8208C84.7061 18.8208 109.122 43.2367 109.122 73.3552C109.122 103.474 84.7061 127.89 54.5876 127.89C24.4691 127.89 0.0532227 103.474 0.0532227 73.3552Z" fill="#FFFECC"/>
<path fill-rule="evenodd" clip-rule="evenodd" d="M27.2193 48.4787C13.4805 48.4787 2.343 59.6162 2.343 73.355C2.343 87.0938 13.4805 98.2313 27.2193 98.2313C40.9581 98.2313 52.0955 87.0938 52.0955 73.355C52.0955 59.6162 40.9581 48.4787 27.2193 48.4787ZM0 73.355C0 58.3222 12.1865 46.1357 27.2193 46.1357C42.2521 46.1357 54.4385 58.3222 54.4385 73.355C54.4385 88.3878 42.2521 100.574 27.2193 100.574C12.1865 100.574 0 88.3878 0 73.355Z" fill="#FFFECC"/>
</svg>
