<svg width="147" height="147" viewBox="0 0 147 147" fill="none" xmlns="http://www.w3.org/2000/svg">
<path fill-rule="evenodd" clip-rule="evenodd" d="M73.0675 2.343C34.0074 2.343 2.343 34.0074 2.343 73.0675C2.343 112.128 34.0074 143.792 73.0675 143.792C112.128 143.792 143.792 112.128 143.792 73.0675C143.792 34.0074 112.128 2.343 73.0675 2.343ZM0 73.0675C0 32.7134 32.7134 0 73.0675 0C113.422 0 146.135 32.7134 146.135 73.0675C146.135 113.422 113.422 146.135 73.0675 146.135C32.7134 146.135 0 113.422 0 73.0675Z" fill="#FFFECC"/>
<path fill-rule="evenodd" clip-rule="evenodd" d="M73.0674 14.3157C40.6197 14.3157 14.3157 40.6197 14.3157 73.0674C14.3157 105.515 40.6197 131.819 73.0674 131.819C105.515 131.819 131.819 105.515 131.819 73.0674C131.819 40.6197 105.515 14.3157 73.0674 14.3157ZM11.9727 73.0674C11.9727 39.3257 39.3257 11.9727 73.0674 11.9727C106.809 11.9727 134.162 39.3257 134.162 73.0674C134.162 106.809 106.809 134.162 73.0674 134.162C39.3257 134.162 11.9727 106.809 11.9727 73.0674Z" fill="#FFFECC"/>
<path fill-rule="evenodd" clip-rule="evenodd" d="M73.0674 26.2864C47.2321 26.2864 26.2883 47.231 26.2883 73.0675C26.2883 98.9041 47.2321 119.849 73.0674 119.849C98.9027 119.849 119.846 98.9041 119.846 73.0675C119.846 47.231 98.9027 26.2864 73.0674 26.2864ZM23.9453 73.0675C23.9453 45.9371 45.938 23.9434 73.0674 23.9434C100.197 23.9434 122.189 45.9371 122.189 73.0675C122.189 100.198 100.197 122.192 73.0674 122.192C45.938 122.192 23.9453 100.198 23.9453 73.0675Z" fill="#FFFECC"/>
<path fill-rule="evenodd" clip-rule="evenodd" d="M73.0675 38.259C53.8757 38.259 38.259 53.8757 38.259 73.0675C38.259 92.2593 53.8757 107.876 73.0675 107.876C92.2593 107.876 107.876 92.2593 107.876 73.0675C107.876 53.8757 92.2593 38.259 73.0675 38.259ZM35.916 73.0675C35.916 52.5817 52.5817 35.916 73.0675 35.916C93.5533 35.916 110.219 52.5817 110.219 73.0675C110.219 93.5533 93.5533 110.219 73.0675 110.219C52.5817 110.219 35.916 93.5533 35.916 73.0675Z" fill="#FFFECC"/>
<path d="M62.4018 84.151C56.2632 78.0124 56.2632 68.0589 62.4018 61.9224C68.5405 55.7837 78.4919 55.7837 84.6305 61.9224C90.7692 68.061 90.7692 78.0124 84.6305 84.1532C78.494 90.2897 68.5405 90.2897 62.4018 84.151Z" fill="#FFFECC"/>
</svg>
