<svg width="184" height="23" viewBox="0 0 184 23" fill="none" xmlns="http://www.w3.org/2000/svg">
<g clip-path="url(#clip0_1449_15899)">
<path d="M183.997 1.12041V22.497C181.439 22.497 178.9 22.586 176.375 22.436C175.734 22.3985 175.07 21.6766 174.504 21.1562C170.698 17.495 166.92 13.8057 162.73 9.73665V22.3375H154.687C154.552 21.856 154.462 21.3634 154.415 20.8656C154.415 14.8558 154.415 8.85065 154.378 2.84553C154.378 1.43918 154.752 0.754755 156.211 0.937581C156.289 0.94696 156.367 0.94696 156.445 0.937581C161.434 0.140649 165.479 1.49543 168.603 5.74261C170.473 8.29279 172.812 10.482 174.944 12.8353L175.879 12.2259V1.12041H183.997Z" fill="#FFFECC"/>
<path d="M30.3898 10.3768C30.1419 5.81089 26.892 2.07939 21.5798 1.63405C14.5655 1.04338 7.45761 1.20275 0.391839 1.05273C0.279609 1.05273 0.162691 1.23557 -0.000976562 1.38089V22.5183C5.21301 22.5183 10.1838 22.6168 15.1453 22.4761C17.7064 22.4668 20.2573 22.1521 22.7442 21.5386C28.5053 19.9494 30.7171 16.5038 30.3898 10.3768ZM18.6525 15.9507C15.5153 16.3596 12.356 16.5741 9.19249 16.5929C8.84178 16.5929 8.21516 15.7257 8.14034 15.1866C8.04513 14.0249 8.02949 12.858 8.09356 11.6941C8.09356 6.70158 8.09357 6.64063 13.1252 6.73439C15.0491 6.75508 16.9646 6.99412 18.8349 7.44695C20.8456 7.96261 21.8697 9.54709 21.851 11.666C21.837 13.8365 20.7989 15.6132 18.6525 15.9507Z" fill="#FFFECC"/>
<path d="M86.8258 11.5621C87.3401 11.2715 87.5412 11.1496 87.761 11.0417C90.0991 9.81822 90.7678 7.81653 90.3096 5.34135C89.8887 3.03494 88.2894 1.92393 86.1617 1.47858C84.8799 1.17964 83.5723 1.00539 82.2571 0.95824C76.2669 0.906674 70.2766 0.930113 64.2864 0.95824C63.6224 0.95824 62.9583 1.06605 62.2803 1.1223V22.541C64.4921 22.541 66.5777 22.466 68.654 22.5645C70.1223 22.6348 70.5665 22.0347 70.4964 20.6471C70.4076 18.9548 70.473 17.2531 70.473 15.317C73.6669 15.317 76.6035 15.2139 79.5309 15.3546C81.2237 15.4389 82.1355 16.639 82.2664 18.3267C82.3413 19.2642 82.1776 20.2299 82.3787 21.1394C82.5003 21.6691 83.1082 22.4566 83.529 22.4801C85.9045 22.6066 88.2847 22.541 90.8099 22.541C90.2862 18.3782 91.9836 13.9482 86.8258 11.5621ZM79.9938 9.73385C76.9262 9.93543 73.8399 9.82292 70.6086 9.82292V6.28361C73.882 6.28361 77.0478 6.20391 80.1949 6.3586C80.7888 6.38673 81.3359 7.34773 81.9017 7.87746C81.2657 8.53375 80.6672 9.69166 79.9938 9.73385Z" fill="#FFFECC"/>
<path d="M54.3339 9.06041C52.9311 6.37897 52.0426 2.72245 49.8074 1.37705C47.5721 0.0316377 43.9106 1.05827 40.8851 0.908262C39.4823 0.837945 38.8276 1.41925 38.2524 2.62403C35.7039 7.97753 33.0618 13.2841 30.4618 18.6095C29.896 19.7721 29.3723 20.9534 28.6475 22.5192C31.0464 22.5192 33.0431 22.4536 35.0352 22.5426C36.3679 22.5989 37.2844 22.266 37.6959 20.8878C38.1636 19.383 39.2017 18.9564 40.7402 19.0361C43.3074 19.1627 45.884 19.158 48.4513 19.0361C49.957 18.9752 50.9624 19.3033 51.5189 20.8503C51.748 21.4832 52.4541 22.3785 52.9591 22.4114C55.5638 22.5707 58.1872 22.4817 61.2641 22.4817C58.8091 17.7329 56.6019 13.3779 54.3339 9.06041ZM41.1938 13.4154L44.4905 6.33209L47.8433 13.4154H41.1938Z" fill="#FFFECC"/>
<path d="M151.704 1.13867H143.769V22.3933H151.704V1.13867Z" fill="#FFFECC"/>
<path d="M141.917 0.931904L136.652 14.7469C136.264 15.7642 135.871 16.7815 135.483 17.8034C133.467 23.0819 133.467 23.0819 127.374 22.299C127.469 21.8013 127.594 21.3098 127.748 20.827C129.974 15.0094 132.326 9.23872 134.398 3.36486C135.104 1.36785 136.086 0.645919 138.097 0.90375C139.368 0.987685 140.644 0.997104 141.917 0.931904Z" fill="#FFFECC"/>
<path d="M107.511 5.55677C106.833 8.52885 105.837 11.4306 104.976 14.3605H104.383C102.91 10.0196 101.437 5.67863 99.8232 0.934543C101.876 0.934543 103.625 0.859537 105.36 0.962669C106.618 1.03299 107.955 3.60194 107.511 5.55677Z" fill="#FFFECC"/>
<path d="M125.476 5.47928C124.844 8.39511 123.703 11.2031 122.773 14.058H122.137L118.073 0.932104C120.215 0.932104 122.09 0.561737 123.727 1.02115C125.808 1.62588 125.822 3.87604 125.476 5.47928Z" fill="#FFFECC"/>
<path d="M116.134 20.6066C115.802 22.1911 115.035 22.6459 113.553 22.5427C112.15 22.4443 110.78 22.5427 108.933 22.5427L113.048 9.69805L113.642 9.66992C114.249 13.3592 116.994 16.4673 116.134 20.6066Z" fill="#FFFECC"/>
</g>
<defs>
<clipPath id="clip0_1449_15899">
<rect width="184" height="22" fill="white" transform="translate(-0.000976562 0.673828)"/>
</clipPath>
</defs>
</svg>
