<svg width="211" height="33" viewBox="0 0 211 33" fill="none" xmlns="http://www.w3.org/2000/svg">
<g clip-path="url(#clip0_5379_58768)">
<path d="M116.495 14.1268C115.699 14.1272 114.92 13.8898 114.257 13.4444C113.595 12.9991 113.078 12.3658 112.773 11.6247C112.468 10.8837 112.387 10.0681 112.543 9.2812C112.698 8.49429 113.081 7.77138 113.644 7.20392C114.207 6.63646 114.925 6.24994 115.706 6.09325C116.488 5.93656 117.298 6.01673 118.034 6.32363C118.77 6.63054 119.399 7.15038 119.841 7.81741C120.284 8.48443 120.52 9.26868 120.52 10.0709C120.521 10.6034 120.417 11.1308 120.215 11.6229C120.013 12.1149 119.716 12.562 119.342 12.9387C118.969 13.3153 118.525 13.6141 118.036 13.818C117.548 14.0218 117.024 14.1268 116.495 14.1268Z" fill="#FC3151"/>
<path d="M116.495 26.9822C115.699 26.9827 114.92 26.7453 114.257 26.2999C113.595 25.8545 113.078 25.2213 112.773 24.4802C112.468 23.7391 112.387 22.9236 112.543 22.1367C112.698 21.3498 113.081 20.6269 113.644 20.0594C114.207 19.4919 114.925 19.1054 115.706 18.9487C116.488 18.792 117.298 18.8722 118.034 19.1791C118.77 19.486 119.399 20.0058 119.841 20.6729C120.284 21.3399 120.52 22.1241 120.52 22.9264C120.521 23.4589 120.417 23.9863 120.215 24.4783C120.013 24.9704 119.716 25.4175 119.342 25.7942C118.969 26.1708 118.525 26.4696 118.036 26.6734C117.548 26.8773 117.024 26.9822 116.495 26.9822Z" fill="#FC3151"/>
<path d="M16.3847 0C6.52763 0 0 6.5711 0 16.5C0 26.4289 6.52763 33 16.3847 33C26.2881 33 32.8595 26.3873 32.8595 16.5C32.8595 6.5711 26.2881 0 16.3847 0ZM16.4309 23.8083C12.4594 23.8083 9.72821 20.7738 9.72821 16.5C9.72821 12.1797 12.4667 9.1917 16.4382 9.1917C20.4098 9.1917 23.1921 12.1797 23.1921 16.5C23.1921 20.8203 20.4001 23.8083 16.4309 23.8083Z" fill="#FFFECC"/>
<path d="M46.0412 0.460449H35.5444V32.5445H46.0412C55.8545 32.5445 61.7863 26.4779 61.7863 16.5049C61.7863 6.48049 55.8545 0.460449 46.0412 0.460449ZM45.9974 24.0361H44.4457V8.96149H45.9974C50.0589 8.96149 52.204 11.9495 52.204 16.5C52.204 21.0505 50.0589 24.0361 45.9974 24.0361Z" fill="#FFFECC"/>
<path d="M75.024 0.460449H64.5272V32.5445H75.024C84.8373 32.5445 90.7691 26.4779 90.7691 16.5049C90.7691 6.48049 84.8373 0.460449 75.024 0.460449ZM74.9778 24.0361H73.4261V8.96149H74.9778C79.0393 8.96149 81.1843 11.9495 81.1843 16.5C81.1843 21.0505 79.0417 24.0361 74.9778 24.0361Z" fill="#FFFECC"/>
<path d="M92.5907 31.8048V21.7975C95.193 23.4973 97.2116 24.3716 98.6149 24.3716C99.6193 24.3716 100.395 23.9112 100.395 22.7625C100.395 21.9347 99.9841 21.2465 99.1645 20.3721L95.9226 16.958C93.4127 14.6141 92.4545 11.8588 92.4545 9.0619C92.4545 3.3627 96.3458 0 102.183 0C104.139 0.00896733 106.081 0.334786 107.934 0.96497V9.37539C105.926 8.3198 104.286 7.53852 103.097 7.53852C102.093 7.53852 101.499 7.99651 101.499 8.9174C101.499 9.51254 101.772 10.0661 102.547 10.8914L105.6 14.1562C108.657 17.1441 109.89 19.7623 109.89 23.267C109.89 29.3899 105.965 33.0122 99.5731 33.0122C97.1971 32.9923 94.8397 32.5888 92.5907 31.8171" fill="#FFFECC"/>
<path d="M123.118 16.5906C123.118 6.38741 129.738 0 139.685 0C142.39 0.00383071 145.075 0.470079 147.626 1.37888V10.6171C145.296 9.45373 142.739 8.82552 140.14 8.77779C135.667 8.77779 132.199 11.1216 132.199 16.5465C132.199 21.9714 135.439 24.543 139.821 24.543C140.555 24.546 141.287 24.4846 142.01 24.3594V20.4064H136.538V12.961H150.274V30.7933C146.76 32.4024 142.834 32.9975 139.641 32.9975C129.183 32.9975 123.118 26.4705 123.118 16.5882" fill="#FFFECC"/>
<path d="M170.553 0.460449H157.636L151.799 32.5445H160.467L161.014 28.9001H167.221L167.724 32.5298H176.567L170.553 0.460449ZM162.065 21.6481L164.071 7.9059H164.164L166.172 21.6481H162.065Z" fill="#FFFECC"/>
<path d="M180.252 8.82433H176.555V0.460449H192.847V8.82433H189.15V32.5396H180.252V8.82433Z" fill="#FFFECC"/>
<path d="M195.437 0.460449H210.908V8.50349H204.336V12.7307H209.677V19.946H204.336V24.4965H211V32.5396H195.437V0.460449Z" fill="#FFFECC"/>
</g>
<defs>
<clipPath id="clip0_5379_58768">
<rect width="211" height="33" fill="white"/>
</clipPath>
</defs>
</svg>
