<svg width="1392" height="218" viewBox="0 0 1392 218" fill="none" xmlns="http://www.w3.org/2000/svg">
<path d="M768.78 177.999C763.527 178.054 758.377 176.538 753.982 173.642C749.587 170.746 746.147 166.6 744.099 161.733C742.05 156.865 741.485 151.494 742.475 146.302C743.466 141.11 745.968 136.332 749.662 132.574C753.357 128.816 758.078 126.248 763.226 125.196C768.374 124.144 773.716 124.655 778.575 126.665C783.433 128.675 787.589 132.093 790.513 136.485C793.437 140.876 794.999 146.043 794.999 151.33C795.018 158.36 792.27 165.111 787.357 170.109C782.444 175.106 775.765 177.943 768.78 177.999ZM768.78 93.3359C763.518 93.3918 758.359 91.87 753.96 88.9644C749.561 86.0588 746.121 81.9009 744.079 77.0206C742.036 72.1404 741.484 66.7586 742.491 61.5611C743.499 56.3637 746.022 51.5858 749.737 47.8363C753.453 44.0868 758.194 41.5355 763.356 40.5074C768.518 39.4793 773.867 40.0211 778.721 42.0636C783.576 44.1061 787.717 47.5569 790.616 51.9763C793.515 56.3957 795.041 61.5836 794.999 66.8789C795.018 73.9089 792.27 80.6604 787.357 85.6577C782.444 90.655 775.765 93.4917 768.78 93.5476V93.3359Z" fill="#FC3151"/>
<path d="M0 109.035C0 43.4156 43.0902 0 108.218 0C173.347 0 217 43.4156 217 109.035C217 174.655 173.558 218 108.218 218C42.879 218 0 174.584 0 109.035ZM108.5 157.275C134.692 157.275 153.069 137.554 153.069 109.035C153.069 80.5174 134.692 60.725 108.5 60.725C82.3079 60.725 64.2128 80.4465 64.2128 109.035C64.2128 137.624 82.3079 157.275 108.5 157.275Z" fill="#FFFECC"/>
<path d="M235 3H304.032C368.573 3 408 42.5326 408 109.035C408 175.538 368.573 215 304.032 215H235V3ZM303.751 159.143C330.48 159.143 344.581 139.341 344.581 109.461C344.581 79.5812 330.55 59.7794 303.751 59.7794H293.509V159.143H303.751Z" fill="#FFFECC"/>
<path d="M426 3H495.172C559.845 3 599 42.5326 599 109.035C599 175.538 559.845 215 495.172 215H426V3ZM494.891 159.143C521.674 159.143 535.803 139.341 535.803 109.461C535.803 79.5812 521.744 59.7794 494.891 59.7794H484.627V159.143H494.891Z" fill="#FFFECC"/>
<path d="M610.64 209.571V143.558C627.854 154.737 641.117 160.539 650.5 160.539C657.132 160.539 662.282 157.497 662.282 149.926C661.702 143.88 658.759 138.309 654.098 134.431L632.933 112.002C625.619 105.473 619.787 97.4452 615.832 88.4616C611.876 79.478 609.889 69.7477 610.005 59.9279C609.723 22.075 635.403 0 674.063 0C686.996 0.077975 699.833 2.22766 712.089 6.36779V61.7675C698.826 54.8337 687.962 49.5272 680.06 49.5272C673.429 49.5272 669.478 52.5696 669.478 58.5836C669.726 61.1164 670.478 63.5736 671.69 65.8097C672.902 68.0458 674.549 70.0155 676.533 71.6022L696.78 92.8282C716.957 112.568 725 129.832 725 152.827C725 193.085 699.038 217 656.779 217C641.103 216.995 625.529 214.488 610.64 209.571Z" fill="#FFFECC"/>
<path d="M812 109.602C812 42.5638 855.556 0 921.1 0C938.906 0.0148644 956.58 3.08534 973.367 9.08028V70.1593C958.066 62.4911 941.27 58.3479 924.191 58.0286C894.756 58.0286 871.924 73.4935 871.924 109.318C871.924 145.143 893 162.168 922.084 162.168C926.932 162.167 931.772 161.763 936.555 160.962V134.785H900.446V85.6242H991V203.455C968.836 213.173 944.912 218.126 920.749 217.998C851.973 217.998 812 174.866 812 109.602Z" fill="#FFFECC"/>
<path d="M1039.73 3H1125.5L1165 215H1106.45L1103.14 191.011H1062.02L1058.35 215H1001L1039.73 3ZM1096.16 143.032L1083.18 52.1851H1082.61L1069.07 143.032H1096.16Z" fill="#FFFECC"/>
<path d="M1189.3 58.2889H1165V3H1272V58.2889H1247.77V215H1189.3V58.2889Z" fill="#FFFECC"/>
<path d="M1289 3H1391.37V56.1597H1347.91V84.1235H1383.18V131.818H1347.91V161.84H1392V215H1289V3Z" fill="#FFFECC"/>
</svg>
