<?xml version="1.0" encoding="UTF-8"?>
<svg xmlns="http://www.w3.org/2000/svg" version="1.1" viewBox="0 0 457 458">
  <defs>
    <style>
      .cls-1 {
        fill: #faf6be;
      }

      .cls-2 {
        fill: #3e0e32;
      }
    </style>
  </defs>
  <!-- Generator: Adobe Illustrator 28.6.0, SVG Export Plug-In . SVG Version: 1.2.0 Build 709)  -->
  <g>
    <g id="Layer_1">
      <g>
        <circle class="cls-2" cx="228.5" cy="229" r="228.5"/>
        <g>
          <g>
            <path class="cls-1" d="M228.5,413.3c-101.6,0-184.3-82.7-184.3-184.3S126.9,44.7,228.5,44.7s184.3,82.7,184.3,184.3-82.7,184.3-184.3,184.3ZM228.5,52.7c-97.2,0-176.3,79.1-176.3,176.3s79.1,176.3,176.3,176.3,176.3-79.1,176.3-176.3S325.7,52.7,228.5,52.7Z"/>
            <path class="cls-1" d="M228.5,383.3c-85.1,0-154.3-69.2-154.3-154.3S143.4,74.7,228.5,74.7s154.3,69.2,154.3,154.3-69.2,154.3-154.3,154.3ZM228.5,82.7c-80.7,0-146.3,65.6-146.3,146.3s65.6,146.3,146.3,146.3,146.3-65.6,146.3-146.3-65.6-146.3-146.3-146.3Z"/>
            <path class="cls-1" d="M228.5,353.3c-68.5,0-124.3-55.7-124.3-124.3s55.7-124.3,124.3-124.3,124.3,55.7,124.3,124.3-55.7,124.3-124.3,124.3ZM228.5,112.7c-64.1,0-116.3,52.2-116.3,116.3s52.2,116.3,116.3,116.3,116.3-52.2,116.3-116.3-52.2-116.3-116.3-116.3Z"/>
            <path class="cls-1" d="M228.5,323.2c-52,0-94.2-42.3-94.2-94.2s42.3-94.2,94.2-94.2,94.2,42.3,94.2,94.2-42.3,94.2-94.2,94.2ZM228.5,142.8c-47.6,0-86.2,38.7-86.2,86.2s38.7,86.2,86.2,86.2,86.2-38.7,86.2-86.2-38.7-86.2-86.2-86.2Z"/>
          </g>
          <path class="cls-1" d="M48.2,229c0-99.6,80.7-180.3,180.3-180.3s180.3,80.7,180.3,180.3"/>
        </g>
      </g>
    </g>
  </g>
</svg>