<?xml version="1.0" encoding="UTF-8"?>
<svg xmlns="http://www.w3.org/2000/svg" version="1.1" viewBox="0 0 457 458">
  <defs>
    <style>
      .cls-1 {
        fill: #faf6be;
      }

      .cls-2 {
        fill: #3e0e32;
      }
    </style>
  </defs>
  <!-- Generator: Adobe Illustrator 28.6.0, SVG Export Plug-In . SVG Version: 1.2.0 Build 709)  -->
  <g>
    <g id="Layer_1">
      <g>
        <circle class="cls-2" cx="228.5" cy="229" r="228.5"/>
        <g>
          <g>
            <circle class="cls-1" cx="167.2" cy="153.1" r="91.3" transform="translate(-10.7 293.6) rotate(-80.8)"/>
            <path class="cls-1" d="M167.2,248.4c-52.5,0-95.3-42.8-95.3-95.3s42.8-95.3,95.3-95.3,95.3,42.8,95.3,95.3-42.8,95.3-95.3,95.3ZM167.2,65.8c-48.1,0-87.3,39.2-87.3,87.3s39.2,87.3,87.3,87.3,87.3-39.2,87.3-87.3-39.2-87.3-87.3-87.3Z"/>
          </g>
          <path class="cls-1" d="M292.7,248.4c-52.5,0-95.3-42.8-95.3-95.3s42.8-95.3,95.3-95.3,95.3,42.8,95.3,95.3-42.8,95.3-95.3,95.3ZM292.7,65.8c-48.1,0-87.3,39.2-87.3,87.3s39.2,87.3,87.3,87.3,87.3-39.2,87.3-87.3-39.2-87.3-87.3-87.3Z"/>
          <path class="cls-1" d="M167.2,400.2c-52.5,0-95.3-42.8-95.3-95.3s42.8-95.3,95.3-95.3,95.3,42.8,95.3,95.3-42.8,95.3-95.3,95.3ZM167.2,217.6c-48.1,0-87.3,39.2-87.3,87.3s39.2,87.3,87.3,87.3,87.3-39.2,87.3-87.3-39.2-87.3-87.3-87.3Z"/>
          <path class="cls-1" d="M292.7,400.2c-52.5,0-95.3-42.8-95.3-95.3s42.8-95.3,95.3-95.3,95.3,42.8,95.3,95.3-42.8,95.3-95.3,95.3ZM292.7,217.6c-48.1,0-87.3,39.2-87.3,87.3s39.2,87.3,87.3,87.3,87.3-39.2,87.3-87.3-39.2-87.3-87.3-87.3Z"/>
        </g>
      </g>
    </g>
  </g>
</svg>