<?xml version="1.0" encoding="UTF-8"?>
<svg xmlns="http://www.w3.org/2000/svg" version="1.1" viewBox="0 0 457 458">
  <defs>
    <style>
      .cls-1 {
        fill: #faf6be;
      }

      .cls-2 {
        fill: #3e0e32;
      }
    </style>
  </defs>
  <!-- Generator: Adobe Illustrator 28.6.0, SVG Export Plug-In . SVG Version: 1.2.0 Build 709)  -->
  <g>
    <g id="Layer_1">
      <g>
        <circle class="cls-2" cx="228.5" cy="229" r="228.5"/>
        <g>
          <path class="cls-1" d="M199.8,380.2c-52.5,0-95.3-42.8-95.3-95.3s42.8-95.3,95.3-95.3,95.3,42.8,95.3,95.3-42.8,95.3-95.3,95.3ZM199.8,197.6c-48.1,0-87.3,39.2-87.3,87.3s39.2,87.3,87.3,87.3,87.3-39.2,87.3-87.3-39.2-87.3-87.3-87.3Z"/>
          <path class="cls-1" d="M214.1,352.2c-52.5,0-95.3-42.8-95.3-95.3s42.8-95.3,95.3-95.3,95.3,42.8,95.3,95.3-42.8,95.3-95.3,95.3ZM214.1,169.6c-48.1,0-87.3,39.2-87.3,87.3s39.2,87.3,87.3,87.3,87.3-39.2,87.3-87.3-39.2-87.3-87.3-87.3Z"/>
          <path class="cls-1" d="M228.5,324.3c-52.5,0-95.3-42.8-95.3-95.3s42.8-95.3,95.3-95.3,95.3,42.8,95.3,95.3-42.8,95.3-95.3,95.3ZM228.5,141.7c-48.1,0-87.3,39.2-87.3,87.3s39.2,87.3,87.3,87.3,87.3-39.2,87.3-87.3-39.2-87.3-87.3-87.3Z"/>
          <path class="cls-1" d="M242.9,296.4c-52.5,0-95.3-42.8-95.3-95.3s42.8-95.3,95.3-95.3,95.3,42.8,95.3,95.3-42.8,95.3-95.3,95.3ZM242.9,113.8c-48.1,0-87.3,39.2-87.3,87.3s39.2,87.3,87.3,87.3,87.3-39.2,87.3-87.3-39.2-87.3-87.3-87.3Z"/>
          <path class="cls-1" d="M257.2,268.4c-52.5,0-95.3-42.8-95.3-95.3s42.8-95.3,95.3-95.3,95.3,42.8,95.3,95.3-42.8,95.3-95.3,95.3ZM257.2,85.8c-48.1,0-87.3,39.2-87.3,87.3s39.2,87.3,87.3,87.3,87.3-39.2,87.3-87.3-39.2-87.3-87.3-87.3Z"/>
        </g>
      </g>
    </g>
  </g>
</svg>