<?xml version="1.0" encoding="UTF-8"?>
<svg xmlns="http://www.w3.org/2000/svg" version="1.1" viewBox="0 0 457 458">
  <defs>
    <style>
      .cls-1 {
        fill: #faf6be;
      }

      .cls-2 {
        fill: #3e0e32;
      }
    </style>
  </defs>
  <!-- Generator: Adobe Illustrator 28.6.0, SVG Export Plug-In . SVG Version: 1.2.0 Build 709)  -->
  <g>
    <g id="Layer_1">
      <g>
        <circle class="cls-2" cx="228.5" cy="229" r="228.5"/>
        <g>
          <path class="cls-1" d="M228.5,372.4c-79.1,0-143.4-64.4-143.4-143.4S149.4,85.6,228.5,85.6s143.4,64.4,143.4,143.4-64.4,143.4-143.4,143.4ZM228.5,104.6c-68.6,0-124.4,55.8-124.4,124.4s55.8,124.4,124.4,124.4,124.4-55.8,124.4-124.4-55.8-124.4-124.4-124.4Z"/>
          <path class="cls-1" d="M228.5,319.7c-50,0-90.7-40.7-90.7-90.7s40.7-90.7,90.7-90.7,90.7,40.7,90.7,90.7-40.7,90.7-90.7,90.7ZM228.5,146.3c-45.6,0-82.7,37.1-82.7,82.7s37.1,82.7,82.7,82.7,82.7-37.1,82.7-82.7-37.1-82.7-82.7-82.7Z"/>
          <path class="cls-1" d="M228.5,420.8c-105.8,0-191.8-86-191.8-191.8S122.7,37.2,228.5,37.2s191.8,86,191.8,191.8-86,191.8-191.8,191.8ZM228.5,45.2c-101.4,0-183.8,82.5-183.8,183.8s82.5,183.8,183.8,183.8,183.8-82.5,183.8-183.8S329.9,45.2,228.5,45.2Z"/>
        </g>
      </g>
    </g>
  </g>
</svg>