<?xml version="1.0" encoding="UTF-8"?>
<svg xmlns="http://www.w3.org/2000/svg" version="1.1" viewBox="0 0 457 458">
  <defs>
    <style>
      .cls-1 {
        fill: #faf6be;
      }

      .cls-2 {
        fill: #3e0e32;
      }
    </style>
  </defs>
  <!-- Generator: Adobe Illustrator 28.6.0, SVG Export Plug-In . SVG Version: 1.2.0 Build 709)  -->
  <g>
    <g id="Layer_1">
      <g>
        <circle class="cls-2" cx="228.5" cy="229" r="228.5"/>
        <g>
          <path class="cls-1" d="M228.5,285.6c-67.3,0-122.1-54.8-122.1-122.1s54.8-122.1,122.1-122.1,122.1,54.8,122.1,122.1-54.8,122.1-122.1,122.1ZM228.5,49.5c-62.9,0-114.1,51.2-114.1,114.1s51.2,114.1,114.1,114.1,114.1-51.2,114.1-114.1-51.2-114.1-114.1-114.1Z"/>
          <path class="cls-1" d="M228.5,416.5c-67.3,0-122.1-54.8-122.1-122.1s54.8-122.1,122.1-122.1,122.1,54.8,122.1,122.1-54.8,122.1-122.1,122.1ZM228.5,180.4c-62.9,0-114.1,51.2-114.1,114.1s51.2,114.1,114.1,114.1,114.1-51.2,114.1-114.1-51.2-114.1-114.1-114.1Z"/>
          <path class="cls-1" d="M228.5,176.6c-41,0-77.1,20.9-98.3,52.6,21.2,31.7,57.3,52.6,98.3,52.6s77.1-20.9,98.3-52.6c-21.2-31.7-57.3-52.6-98.3-52.6Z"/>
        </g>
      </g>
    </g>
  </g>
</svg>