<?xml version="1.0" encoding="UTF-8"?>
<svg xmlns="http://www.w3.org/2000/svg" version="1.1" viewBox="0 0 457 458">
  <defs>
    <style>
      .cls-1 {
        fill: #faf6be;
      }

      .cls-2 {
        fill: #3e0e32;
      }
    </style>
  </defs>
  <!-- Generator: Adobe Illustrator 28.6.0, SVG Export Plug-In . SVG Version: 1.2.0 Build 709)  -->
  <g>
    <g id="Layer_1">
      <g>
        <circle class="cls-2" cx="228.5" cy="229" r="228.5"/>
        <g>
          <g>
            <path class="cls-1" d="M228.5,416.1c-103.2,0-187.1-83.9-187.1-187.1S125.3,41.9,228.5,41.9s187.1,83.9,187.1,187.1-83.9,187.1-187.1,187.1ZM228.5,49.9c-98.7,0-179.1,80.3-179.1,179.1s80.3,179.1,179.1,179.1,179.1-80.3,179.1-179.1S327.2,49.9,228.5,49.9Z"/>
            <path class="cls-1" d="M228.5,385.6c-86.3,0-156.6-70.3-156.6-156.6S142.2,72.4,228.5,72.4s156.6,70.3,156.6,156.6-70.3,156.6-156.6,156.6ZM228.5,80.4c-81.9,0-148.6,66.7-148.6,148.6s66.7,148.6,148.6,148.6,148.6-66.7,148.6-148.6-66.7-148.6-148.6-148.6Z"/>
            <path class="cls-1" d="M228.5,355.1c-69.5,0-126.1-56.6-126.1-126.1s56.6-126.1,126.1-126.1,126.1,56.6,126.1,126.1-56.6,126.1-126.1,126.1ZM228.5,110.9c-65.1,0-118.1,53-118.1,118.1s53,118.1,118.1,118.1,118.1-53,118.1-118.1-53-118.1-118.1-118.1Z"/>
            <path class="cls-1" d="M228.5,324.6c-52.7,0-95.6-42.9-95.6-95.6s42.9-95.6,95.6-95.6,95.6,42.9,95.6,95.6-42.9,95.6-95.6,95.6ZM228.5,141.4c-48.3,0-87.6,39.3-87.6,87.6s39.3,87.6,87.6,87.6,87.6-39.3,87.6-87.6-39.3-87.6-87.6-87.6Z"/>
          </g>
          <path class="cls-1" d="M201.3,257c-15.6-15.6-15.6-41,0-56.6,15.6-15.6,41-15.6,56.6,0,15.6,15.6,15.6,41,0,56.6-15.6,15.6-41,15.6-56.6,0"/>
        </g>
      </g>
    </g>
  </g>
</svg>