<?xml version="1.0" encoding="UTF-8"?>
<svg xmlns="http://www.w3.org/2000/svg" version="1.1" viewBox="0 0 184 84.8">
  <defs>
    <style>
      .cls-1 {
        fill: #fffecc;
      }
    </style>
  </defs>
  <!-- Generator: Adobe Illustrator 28.6.0, SVG Export Plug-In . SVG Version: 1.2.0 Build 709)  -->
  <g>
    <g id="Layer_1">
      <path class="cls-1" d="M156.7,33.4c-9,.6-5,12.3,5,11.6,9.7-.6,4.6-12.2-5-11.6Z"/>
      <path class="cls-1" d="M152.9,26.1c-16,0-29,13-29,29s13,29,29,29,29-13,29-29h0c0-16-13-29-29-29ZM152.9,81c-14.3,0-25.9-11.6-25.9-25.9,0-14.3,11.6-25.9,25.9-25.9,14.3,0,25.9,11.6,25.9,25.9h0c0,14.3-11.6,25.9-25.9,25.9ZM152.1,5.9c-6.9,5.2-5.7,13.2-5.7,13.2,0,0-4.3-11.2-9.9-18.1-.8,8.8,2,20.5,2,20.5,0,0-3.5-7.3-12.1-7.7,7.1,4.1,9.9,11.5,10.5,13.5,4.3-2.6,9.1-4.1,14.1-4.3-.6-1.8-2.6-9.6,1.1-17.2Z"/>
      <path class="cls-1" d="M3.5,57.9v6.1H1v-15.6h5.3c1.8,0,3.2.4,4.1,1.3s1.4,2,1.4,3.5c0,1.5-.5,2.6-1.4,3.5-.9.8-2.3,1.3-4,1.3h-2.8ZM9.2,53.2c0-.9-.2-1.6-.7-2-.5-.5-1.3-.7-2.4-.7h-2.5v5.4h2.5c2.1,0,3.1-.9,3.1-2.7h0ZM22.1,64l-3.9-6.2h-1.8v6.2h-2.5v-15.6h5.5c1.8,0,3.1.4,4.1,1.3.9.9,1.4,2,1.4,3.5,0,1.2-.3,2.2-1,3-.7.8-1.7,1.3-3,1.5l4.1,6.3h-2.9ZM16.5,56h2.8c2,0,3.1-.9,3.1-2.7,0-.9-.2-1.5-.7-2-.5-.5-1.3-.7-2.3-.7h-2.8v5.4ZM36.5,60.6h-6.6l-1.2,3.4h-2.7l5.8-15.4h2.9l5.7,15.4h-2.7l-1.2-3.4ZM35.8,58.7l-2.6-7.3-2.6,7.3h5.2ZM53.1,49.6c1.2.9,2.1,2.2,2.5,3.7h-2.7c-.3-.8-.9-1.5-1.7-2-.8-.5-1.8-.8-2.8-.8-.9,0-1.8.2-2.6.7-.8.5-1.4,1.1-1.8,1.9-.5.9-.7,1.9-.6,3,0,1.1.2,2.1.7,3.1.4.8,1.1,1.5,1.9,2,.9.5,1.8.7,2.8.7,1.2,0,2.4-.4,3.3-1.2.9-.8,1.5-1.9,1.7-3.3h-5.7v-1.9h7.8v2.4c-.2,1.1-.6,2.2-1.2,3.1-.7.9-1.5,1.7-2.5,2.2-1.1.6-2.4.9-3.6.8-1.4,0-2.8-.3-4-1-1.2-.7-2.1-1.6-2.7-2.8-1.3-2.6-1.3-5.6,0-8.2.6-1.2,1.5-2.1,2.7-2.8,1.2-.7,2.6-1,4-1,1.9,0,3.4.5,4.6,1.4h0ZM73.7,48.6v15.4h-2.5v-11.5l-4.4,11.5h-2.2l-4.5-11.5v11.5h-2.5v-15.4h3.1l5.1,12.3,5-12.3h3.1ZM86,60.6h-6.6l-1.2,3.4h-2.7l5.8-15.4h2.9l5.7,15.4h-2.7l-1.2-3.4ZM85.3,58.7l-2.6-7.3-2.6,7.3h5.2ZM100.7,48.4v2h-4.4v13.6h-2.5v-13.6h-4.3v-2h11.2ZM104.6,48.4v15.6h-2.5v-15.6h2.5ZM118.8,49.7c1.3,1,2.2,2.4,2.6,4h-2.7c-.3-.9-1-1.7-1.8-2.2-.9-.6-1.9-.9-3-.8-.9,0-1.7.2-2.5.7-.7.5-1.3,1.2-1.7,2-.8,1.9-.8,4,0,5.9.4.8,1,1.5,1.7,2,.7.5,1.6.7,2.5.7,1,0,2.1-.3,3-.8.8-.5,1.4-1.3,1.8-2.2h2.7c-.4,1.6-1.3,3-2.6,3.9-1.3,1-2.9,1.5-4.8,1.5-1.4,0-2.7-.3-3.9-1-1.1-.7-2-1.6-2.6-2.8-1.2-2.6-1.2-5.6,0-8.2.6-1.2,1.5-2.1,2.6-2.8,1.2-.7,2.5-1,3.9-1,1.9,0,3.5.5,4.8,1.5h0ZM133.3,57.9v6.1h-2.5v-15.6h5.3c1.8,0,3.1.4,4.1,1.3s1.4,2,1.4,3.5c0,1.5-.5,2.6-1.4,3.5-.9.8-2.3,1.3-4,1.3h-2.8ZM138.9,53.2c0-.9-.2-1.6-.7-2-.5-.5-1.3-.7-2.4-.7h-2.5v5.4h2.5c2.1,0,3.1-.9,3.1-2.7h0ZM145.8,62h5.4v2h-7.9v-15.6h2.5v13.6ZM162.8,60.6h-6.6l-1.2,3.4h-2.7l5.8-15.4h2.9l5.7,15.4h-2.7l-1.2-3.4ZM162.1,58.7l-2.6-7.3-2.6,7.3h5.2ZM176.8,48.4l-5.2,9.9v5.7h-2.5v-5.7l-5.2-9.9h2.9l3.6,7.2,3.6-7.2h2.9Z"/>
    </g>
  </g>
</svg>