<svg width="146" height="27" viewBox="0 0 146 27" fill="none" xmlns="http://www.w3.org/2000/svg">
<path d="M40.4917 20.3913V23.9061H24.9316V2.88477H40.0889V6.21339H28.9284V11.2597H36.3118V14.7928H28.9162V20.3913H40.4917Z" fill="#FFFECC"/>
<path d="M18.1193 11.9672C6.86118 13.1662 2.71184 9.52636 -0.000488281 1.50227C3.77358 -0.392387 7.59647 -0.554084 11.3705 1.35583C15.6328 3.51288 17.6495 7.20763 18.1193 11.9672Z" fill="#FFFECC"/>
<path d="M18.1011 14.7256C17.7472 18.939 16.0966 22.4659 12.4415 24.7328C8.47526 27.1736 4.32899 27.2956 0.0209961 25.1966C2.65094 16.8155 8.93903 13.1818 18.1011 14.7256Z" fill="#FFFECC"/>
<path d="M122.154 8.68844C117.63 8.74641 114.5 11.9255 114.527 16.4257C114.558 21.048 117.679 24.2637 122.087 24.2149C126.731 24.16 129.971 21.0114 129.98 16.5417C129.989 11.8493 126.777 8.62437 122.154 8.68844ZM125.599 18.595C125.321 20.1906 123.814 21.0358 122.151 21.0144C120.489 20.993 119.28 20.0991 118.795 18.4455C118.671 17.9554 118.576 17.4582 118.512 16.9566C118.512 13.5456 119.93 11.8126 122.328 11.8309C123.881 11.8309 125.132 12.5601 125.459 14.0032C125.801 15.5105 125.849 17.0697 125.599 18.595Z" fill="#FFFECC"/>
<path d="M63.1121 8.67773C58.5936 8.67773 55.3839 11.8325 55.3595 16.3052C55.3351 20.9213 58.383 24.1615 62.8039 24.2164C67.4445 24.2774 70.8463 21.0129 70.8311 16.5127C70.8158 11.8843 67.655 8.67773 63.1121 8.67773ZM66.4315 18.7765C65.8396 20.2318 64.7108 20.9854 63.1151 21.0159C61.5195 21.0464 60.3692 20.3081 59.7895 18.8375C59.4844 18.0992 59.4173 17.2754 59.2404 16.4883C59.3594 13.6051 60.7659 11.8691 63.0724 11.8294C64.6955 11.8019 65.803 12.5647 66.3919 14.0231C66.7124 14.7734 66.8809 15.5799 66.8877 16.3958C66.8945 17.2117 66.7395 18.0209 66.4315 18.7765Z" fill="#FFFECC"/>
<path d="M145.943 23.896H142.242C142.242 22.1142 142.242 20.3568 142.242 18.5964C142.242 17.1258 142.258 15.6491 142.123 14.1877C142.01 12.9673 141.327 12.1222 139.988 11.9849C138.648 11.8476 137.547 12.3571 137.034 13.6294C136.72 14.4282 136.549 15.2761 136.528 16.1342C136.467 18.6696 136.506 21.2111 136.506 23.8715H132.647V9.04071H136.433C136.482 9.60209 136.528 10.1238 136.595 10.9018C137.986 9.1963 139.561 8.36645 141.602 8.6685C144.073 9.03156 145.73 10.3709 145.873 12.8666C146.108 16.4973 145.943 20.1524 145.943 23.896Z" fill="#FFFECC"/>
<path d="M93.9877 9.04737V23.869H90.2198C90.1648 23.3839 90.1099 22.9019 90.0306 22.1971C88.7278 23.7226 87.245 24.3755 85.3778 24.1802C82.9187 23.9209 80.9387 22.4809 80.7403 19.9089C80.4627 16.3362 80.6702 12.7268 80.6702 9.03516H84.3588C84.3588 11.5797 84.3588 14.0601 84.3588 16.5375C84.375 17.2963 84.4464 18.0529 84.5724 18.8014C84.7768 20.0889 85.6341 20.7296 86.8637 20.876C87.4509 20.9803 88.0561 20.866 88.5648 20.5546C89.0735 20.2431 89.4506 19.7562 89.6248 19.1858C89.9353 18.2245 90.0958 17.2212 90.1008 16.2111C90.1679 13.8801 90.1221 11.5492 90.1221 9.03516L93.9877 9.04737Z" fill="#FFFECC"/>
<path d="M55.0911 9.1911L49.7183 23.906C46.17 24.1837 46.1609 24.1867 44.9375 21.0381C43.5625 17.4969 42.1956 13.9517 40.8369 10.4024C40.6783 9.99047 40.5623 9.56332 40.4312 9.15144C40.5468 9.08412 40.6696 9.02989 40.7973 8.98975C44.2479 8.65109 44.2388 8.65413 45.3463 11.937C46.1395 14.2862 46.9633 16.6264 47.9122 19.3661C48.7969 16.6203 49.5688 14.2588 50.3377 11.8821C50.3713 11.7844 50.3896 11.6838 50.417 11.577C51.2896 8.67549 51.7625 8.4253 55.0911 9.1911Z" fill="#FFFECC"/>
<path d="M102.324 12.1309C102.324 14.6876 102.284 17.2108 102.376 19.7309C102.376 20.0604 103.059 20.4845 103.505 20.6462C103.95 20.8079 104.481 20.6797 105.046 20.6797V23.9931C103.535 23.8985 102.031 23.929 100.579 23.688C99.3585 23.4744 98.6843 22.4981 98.6324 21.2625C98.5317 18.9315 98.5134 16.5945 98.4676 14.2635C98.4676 13.6106 98.4676 12.9577 98.4676 12.1644L96.4692 11.9905V9.08906L98.4432 8.86024C97.6622 5.67806 100.109 5.09837 102.352 4.04883V8.83888L105.235 9.00973V11.9844L102.324 12.1309Z" fill="#FFFECC"/>
<path d="M77.2742 2.65234H73.5459V23.9238H77.2742V2.65234Z" fill="#FFFECC"/>
<path d="M111.814 9.03516H108.104V23.9453H111.814V9.03516Z" fill="#FFFECC"/>
<path d="M111.879 3.02539V6.58894C111.403 6.61335 111.006 6.64691 110.61 6.64996C109.758 6.64996 108.904 6.64996 107.952 6.64996V3.02539H111.879Z" fill="#FFFECC"/>
</svg>
